<mxfile host="app.diagrams.net" modified="2021-05-24T16:08:15.072Z" agent="5.0 (Windows NT 10.0; Win64; x64) AppleWebKit/537.36 (KHTML, like Gecko) Chrome/90.0.4430.212 Safari/537.36" etag="tpA866m5ELDF8yOys43q" version="14.7.0" type="github">
  <diagram id="WQHdSDZib3gcWUiRdW0p" name="Page-1">
    <mxGraphModel dx="3044" dy="774" grid="1" gridSize="10" guides="1" tooltips="1" connect="1" arrows="1" fold="1" page="1" pageScale="1" pageWidth="850" pageHeight="1100" math="0" shadow="0">
      <root>
        <mxCell id="0" />
        <mxCell id="1" parent="0" />
        <mxCell id="mJUfbH7Lrrvv5M62oKp3-2" value="" style="rounded=0;whiteSpace=wrap;html=1;strokeColor=none;fillColor=#899757;" vertex="1" parent="1">
          <mxGeometry x="70" y="350" width="530" height="60" as="geometry" />
        </mxCell>
        <mxCell id="mJUfbH7Lrrvv5M62oKp3-1" value="" style="rounded=0;whiteSpace=wrap;html=1;align=left;horizontal=0;fillColor=#94AFC5;" vertex="1" parent="1">
          <mxGeometry x="80" y="360" width="120" height="40" as="geometry" />
        </mxCell>
        <mxCell id="mJUfbH7Lrrvv5M62oKp3-3" value="" style="rounded=0;whiteSpace=wrap;html=1;fillColor=#94AFC5;" vertex="1" parent="1">
          <mxGeometry x="210" y="360" width="120" height="40" as="geometry" />
        </mxCell>
        <mxCell id="mJUfbH7Lrrvv5M62oKp3-4" value="" style="rounded=0;whiteSpace=wrap;html=1;fillColor=#94AFC5;" vertex="1" parent="1">
          <mxGeometry x="340" y="360" width="120" height="40" as="geometry" />
        </mxCell>
        <mxCell id="mJUfbH7Lrrvv5M62oKp3-5" value="" style="rounded=0;whiteSpace=wrap;html=1;fillColor=#94AFC5;" vertex="1" parent="1">
          <mxGeometry x="470" y="360" width="120" height="40" as="geometry" />
        </mxCell>
        <mxCell id="mJUfbH7Lrrvv5M62oKp3-6" value="Jan&lt;span style=&quot;color: rgba(0 , 0 , 0 , 0) ; font-family: monospace ; font-size: 0px&quot;&gt;%3CmxGraphModel%3E%3Croot%3E%3CmxCell%20id%3D%220%22%2F%3E%3CmxCell%20id%3D%221%22%20parent%3D%220%22%2F%3E%3CmxCell%20id%3D%222%22%20value%3D%22%22%20style%3D%22rounded%3D0%3BwhiteSpace%3Dwrap%3Bhtml%3D1%3B%22%20vertex%3D%221%22%20parent%3D%221%22%3E%3CmxGeometry%20x%3D%22340%22%20y%3D%22360%22%20width%3D%22120%22%20height%3D%2240%22%20as%3D%22geometry%22%2F%3E%3C%2FmxCell%3E%3C%2Froot%3E%3C%2FmxGraphModel%3E&lt;/span&gt;" style="rounded=0;whiteSpace=wrap;html=1;fillColor=#A3ADB5;" vertex="1" parent="1">
          <mxGeometry x="95" y="380" width="30" height="20" as="geometry" />
        </mxCell>
        <mxCell id="mJUfbH7Lrrvv5M62oKp3-7" value="Feb" style="rounded=0;whiteSpace=wrap;html=1;fillColor=#A3ADB5;" vertex="1" parent="1">
          <mxGeometry x="125" y="380" width="30" height="20" as="geometry" />
        </mxCell>
        <mxCell id="mJUfbH7Lrrvv5M62oKp3-8" value="Mar" style="rounded=0;whiteSpace=wrap;html=1;fillColor=#A3ADB5;" vertex="1" parent="1">
          <mxGeometry x="155" y="380" width="30" height="20" as="geometry" />
        </mxCell>
        <mxCell id="mJUfbH7Lrrvv5M62oKp3-9" value="Apr" style="rounded=0;whiteSpace=wrap;html=1;fillColor=#A3ADB5;" vertex="1" parent="1">
          <mxGeometry x="225" y="380" width="30" height="20" as="geometry" />
        </mxCell>
        <mxCell id="mJUfbH7Lrrvv5M62oKp3-10" value="May" style="rounded=0;whiteSpace=wrap;html=1;fillColor=#A3ADB5;" vertex="1" parent="1">
          <mxGeometry x="255" y="380" width="30" height="20" as="geometry" />
        </mxCell>
        <mxCell id="mJUfbH7Lrrvv5M62oKp3-11" value="Jun" style="rounded=0;whiteSpace=wrap;html=1;fillColor=#A3ADB5;" vertex="1" parent="1">
          <mxGeometry x="285" y="380" width="30" height="20" as="geometry" />
        </mxCell>
        <mxCell id="mJUfbH7Lrrvv5M62oKp3-12" value="Jul" style="rounded=0;whiteSpace=wrap;html=1;fillColor=#A3ADB5;" vertex="1" parent="1">
          <mxGeometry x="355" y="380" width="30" height="20" as="geometry" />
        </mxCell>
        <mxCell id="mJUfbH7Lrrvv5M62oKp3-13" value="Aug" style="rounded=0;whiteSpace=wrap;html=1;fillColor=#A3ADB5;" vertex="1" parent="1">
          <mxGeometry x="385" y="380" width="30" height="20" as="geometry" />
        </mxCell>
        <mxCell id="mJUfbH7Lrrvv5M62oKp3-14" value="Sep" style="rounded=0;whiteSpace=wrap;html=1;fillColor=#A3ADB5;" vertex="1" parent="1">
          <mxGeometry x="415" y="380" width="30" height="20" as="geometry" />
        </mxCell>
        <mxCell id="mJUfbH7Lrrvv5M62oKp3-15" value="Oct" style="rounded=0;whiteSpace=wrap;html=1;fillColor=#A3ADB5;" vertex="1" parent="1">
          <mxGeometry x="485" y="380" width="30" height="20" as="geometry" />
        </mxCell>
        <mxCell id="mJUfbH7Lrrvv5M62oKp3-16" value="Nov" style="rounded=0;whiteSpace=wrap;html=1;fillColor=#A3ADB5;" vertex="1" parent="1">
          <mxGeometry x="515" y="380" width="30" height="20" as="geometry" />
        </mxCell>
        <mxCell id="mJUfbH7Lrrvv5M62oKp3-17" value="Dec" style="rounded=0;whiteSpace=wrap;html=1;fillColor=#A3ADB5;" vertex="1" parent="1">
          <mxGeometry x="545" y="380" width="30" height="20" as="geometry" />
        </mxCell>
        <mxCell id="mJUfbH7Lrrvv5M62oKp3-18" value="Release 2021.1" style="text;html=1;strokeColor=none;fillColor=none;align=center;verticalAlign=middle;whiteSpace=wrap;rounded=0;" vertex="1" parent="1">
          <mxGeometry x="90" y="360" width="100" height="20" as="geometry" />
        </mxCell>
        <mxCell id="mJUfbH7Lrrvv5M62oKp3-19" value="Release 2021.2" style="text;html=1;strokeColor=none;fillColor=none;align=center;verticalAlign=middle;whiteSpace=wrap;rounded=0;" vertex="1" parent="1">
          <mxGeometry x="220" y="360" width="100" height="20" as="geometry" />
        </mxCell>
        <mxCell id="mJUfbH7Lrrvv5M62oKp3-20" value="Release 2021.3" style="text;html=1;strokeColor=none;fillColor=none;align=center;verticalAlign=middle;whiteSpace=wrap;rounded=0;" vertex="1" parent="1">
          <mxGeometry x="350" y="360" width="100" height="20" as="geometry" />
        </mxCell>
        <mxCell id="mJUfbH7Lrrvv5M62oKp3-21" value="Release 2021.4" style="text;html=1;strokeColor=none;fillColor=none;align=center;verticalAlign=middle;whiteSpace=wrap;rounded=0;" vertex="1" parent="1">
          <mxGeometry x="480" y="360" width="100" height="20" as="geometry" />
        </mxCell>
        <mxCell id="mJUfbH7Lrrvv5M62oKp3-22" value="" style="endArrow=classic;html=1;" edge="1" parent="1">
          <mxGeometry relative="1" as="geometry">
            <mxPoint x="70" y="330" as="sourcePoint" />
            <mxPoint x="330" y="330" as="targetPoint" />
            <Array as="points">
              <mxPoint x="200" y="330" />
            </Array>
          </mxGeometry>
        </mxCell>
        <mxCell id="mJUfbH7Lrrvv5M62oKp3-23" value="K8S 1.20" style="edgeLabel;resizable=0;html=1;align=center;verticalAlign=middle;" connectable="0" vertex="1" parent="mJUfbH7Lrrvv5M62oKp3-22">
          <mxGeometry relative="1" as="geometry" />
        </mxCell>
        <mxCell id="mJUfbH7Lrrvv5M62oKp3-24" value="" style="endArrow=classic;html=1;" edge="1" parent="1">
          <mxGeometry relative="1" as="geometry">
            <mxPoint x="340" y="330" as="sourcePoint" />
            <mxPoint x="600" y="330" as="targetPoint" />
          </mxGeometry>
        </mxCell>
        <mxCell id="mJUfbH7Lrrvv5M62oKp3-25" value="K8S 1.22" style="edgeLabel;resizable=0;html=1;align=center;verticalAlign=middle;" connectable="0" vertex="1" parent="mJUfbH7Lrrvv5M62oKp3-24">
          <mxGeometry relative="1" as="geometry" />
        </mxCell>
        <mxCell id="mJUfbH7Lrrvv5M62oKp3-27" value="" style="shape=curlyBracket;whiteSpace=wrap;html=1;rounded=1;rotation=-90;" vertex="1" parent="1">
          <mxGeometry x="325" y="165" width="20" height="530" as="geometry" />
        </mxCell>
        <mxCell id="mJUfbH7Lrrvv5M62oKp3-28" value="Year 1" style="text;html=1;strokeColor=none;fillColor=none;align=center;verticalAlign=middle;whiteSpace=wrap;rounded=0;" vertex="1" parent="1">
          <mxGeometry x="315" y="440" width="40" height="20" as="geometry" />
        </mxCell>
        <mxCell id="mJUfbH7Lrrvv5M62oKp3-138" value="" style="rounded=0;whiteSpace=wrap;html=1;fillColor=#899757;strokeColor=none;" vertex="1" parent="1">
          <mxGeometry x="622.5" y="836.53" width="250" height="51.82" as="geometry" />
        </mxCell>
        <mxCell id="mJUfbH7Lrrvv5M62oKp3-139" value="" style="rounded=0;whiteSpace=wrap;html=1;align=left;horizontal=0;fillColor=#94AFC5;" vertex="1" parent="1">
          <mxGeometry x="631.7985981308411" y="845.1690909090909" width="111.58878504672899" height="34.54545454545455" as="geometry" />
        </mxCell>
        <mxCell id="mJUfbH7Lrrvv5M62oKp3-140" value="" style="rounded=0;whiteSpace=wrap;html=1;fillColor=#94AFC5;" vertex="1" parent="1">
          <mxGeometry x="752.6864485981309" y="845.1690909090909" width="111.58878504672899" height="34.54545454545455" as="geometry" />
        </mxCell>
        <mxCell id="mJUfbH7Lrrvv5M62oKp3-143" value="Jan&lt;span style=&quot;color: rgba(0 , 0 , 0 , 0) ; font-family: monospace ; font-size: 0px&quot;&gt;%3CmxGraphModel%3E%3Croot%3E%3CmxCell%20id%3D%220%22%2F%3E%3CmxCell%20id%3D%221%22%20parent%3D%220%22%2F%3E%3CmxCell%20id%3D%222%22%20value%3D%22%22%20style%3D%22rounded%3D0%3BwhiteSpace%3Dwrap%3Bhtml%3D1%3B%22%20vertex%3D%221%22%20parent%3D%221%22%3E%3CmxGeometry%20x%3D%22340%22%20y%3D%22360%22%20width%3D%22120%22%20height%3D%2240%22%20as%3D%22geometry%22%2F%3E%3C%2FmxCell%3E%3C%2Froot%3E%3C%2FmxGraphModel%3E&lt;/span&gt;" style="rounded=0;whiteSpace=wrap;html=1;fillColor=#A3ADB5;" vertex="1" parent="1">
          <mxGeometry x="645.7471962616822" y="862.4418181818181" width="27.897196261682247" height="17.272727272727273" as="geometry" />
        </mxCell>
        <mxCell id="mJUfbH7Lrrvv5M62oKp3-144" value="Feb" style="rounded=0;whiteSpace=wrap;html=1;fillColor=#A3ADB5;" vertex="1" parent="1">
          <mxGeometry x="673.6443925233647" y="862.4418181818181" width="27.897196261682247" height="17.272727272727273" as="geometry" />
        </mxCell>
        <mxCell id="mJUfbH7Lrrvv5M62oKp3-145" value="Mar" style="rounded=0;whiteSpace=wrap;html=1;fillColor=#A3ADB5;" vertex="1" parent="1">
          <mxGeometry x="701.5415887850469" y="862.4418181818181" width="27.897196261682247" height="17.272727272727273" as="geometry" />
        </mxCell>
        <mxCell id="mJUfbH7Lrrvv5M62oKp3-146" value="Apr" style="rounded=0;whiteSpace=wrap;html=1;fillColor=#A3ADB5;" vertex="1" parent="1">
          <mxGeometry x="766.635046728972" y="862.4418181818181" width="27.897196261682247" height="17.272727272727273" as="geometry" />
        </mxCell>
        <mxCell id="mJUfbH7Lrrvv5M62oKp3-147" value="May" style="rounded=0;whiteSpace=wrap;html=1;fillColor=#A3ADB5;" vertex="1" parent="1">
          <mxGeometry x="794.5322429906544" y="862.4418181818181" width="27.897196261682247" height="17.272727272727273" as="geometry" />
        </mxCell>
        <mxCell id="mJUfbH7Lrrvv5M62oKp3-148" value="Jun" style="rounded=0;whiteSpace=wrap;html=1;fillColor=#A3ADB5;" vertex="1" parent="1">
          <mxGeometry x="822.4294392523366" y="862.4418181818181" width="27.897196261682247" height="17.272727272727273" as="geometry" />
        </mxCell>
        <mxCell id="mJUfbH7Lrrvv5M62oKp3-155" value="Release 2020.1" style="text;html=1;strokeColor=none;fillColor=none;align=center;verticalAlign=middle;whiteSpace=wrap;rounded=0;" vertex="1" parent="1">
          <mxGeometry x="641.097663551402" y="845.1690909090909" width="92.99065420560748" height="17.272727272727273" as="geometry" />
        </mxCell>
        <mxCell id="mJUfbH7Lrrvv5M62oKp3-156" value="Release 2020.2" style="text;html=1;strokeColor=none;fillColor=none;align=center;verticalAlign=middle;whiteSpace=wrap;rounded=0;" vertex="1" parent="1">
          <mxGeometry x="761.9855140186917" y="845.1690909090909" width="92.99065420560748" height="17.272727272727273" as="geometry" />
        </mxCell>
        <mxCell id="mJUfbH7Lrrvv5M62oKp3-159" value="" style="endArrow=classic;html=1;" edge="1" parent="1">
          <mxGeometry relative="1" as="geometry">
            <mxPoint x="622.4995327102805" y="819.26" as="sourcePoint" />
            <mxPoint x="872.5" y="819" as="targetPoint" />
            <Array as="points">
              <mxPoint x="743.3873831775702" y="819.26" />
            </Array>
          </mxGeometry>
        </mxCell>
        <mxCell id="mJUfbH7Lrrvv5M62oKp3-160" value="K8S 1.20" style="edgeLabel;resizable=0;html=1;align=center;verticalAlign=middle;" connectable="0" vertex="1" parent="mJUfbH7Lrrvv5M62oKp3-159">
          <mxGeometry relative="1" as="geometry" />
        </mxCell>
        <mxCell id="mJUfbH7Lrrvv5M62oKp3-163" value="" style="shape=curlyBracket;whiteSpace=wrap;html=1;rounded=1;rotation=-90;" vertex="1" parent="1">
          <mxGeometry x="735.45" y="783.43" width="18.6" height="244.38" as="geometry" />
        </mxCell>
        <mxCell id="mJUfbH7Lrrvv5M62oKp3-195" value="" style="shape=umlDestroy;whiteSpace=wrap;html=1;strokeWidth=3;rounded=0;shadow=0;glass=0;sketch=0;fillColor=#DD804E;gradientColor=#F5B33C;rotation=45;" vertex="1" parent="1">
          <mxGeometry x="587.4" y="852.5899999999999" width="20" height="19.71" as="geometry" />
        </mxCell>
        <mxCell id="mJUfbH7Lrrvv5M62oKp3-111" value="" style="rounded=0;whiteSpace=wrap;html=1;fillColor=#899757;strokeColor=none;" vertex="1" parent="1">
          <mxGeometry x="82.86953271028051" y="836.5327272727272" width="492.8504672897197" height="51.81818181818182" as="geometry" />
        </mxCell>
        <mxCell id="mJUfbH7Lrrvv5M62oKp3-193" value="" style="rounded=0;whiteSpace=wrap;html=1;gradientDirection=west;glass=0;shadow=0;sketch=0;imageAspect=1;gradientColor=#F5B33C;fillColor=#899757;strokeColor=none;" vertex="1" parent="1">
          <mxGeometry x="82.87" y="836.53" width="247" height="51.81818181818182" as="geometry" />
        </mxCell>
        <mxCell id="mJUfbH7Lrrvv5M62oKp3-56" value="" style="rounded=0;whiteSpace=wrap;html=1;fillColor=#F5B33C;strokeColor=none;" vertex="1" parent="1">
          <mxGeometry x="-150" y="577.2727272727273" width="492.8504672897197" height="51.81818181818182" as="geometry" />
        </mxCell>
        <mxCell id="mJUfbH7Lrrvv5M62oKp3-57" value="" style="rounded=0;whiteSpace=wrap;html=1;align=left;horizontal=0;fillColor=#94AFC5;" vertex="1" parent="1">
          <mxGeometry x="-140.70093457943926" y="585.9090909090909" width="111.58878504672899" height="34.54545454545455" as="geometry" />
        </mxCell>
        <mxCell id="mJUfbH7Lrrvv5M62oKp3-58" value="" style="rounded=0;whiteSpace=wrap;html=1;fillColor=#94AFC5;" vertex="1" parent="1">
          <mxGeometry x="-19.81308411214951" y="585.9090909090909" width="111.58878504672899" height="34.54545454545455" as="geometry" />
        </mxCell>
        <mxCell id="mJUfbH7Lrrvv5M62oKp3-59" value="" style="rounded=0;whiteSpace=wrap;html=1;fillColor=#94AFC5;" vertex="1" parent="1">
          <mxGeometry x="101.07476635514024" y="585.9090909090909" width="111.58878504672899" height="34.54545454545455" as="geometry" />
        </mxCell>
        <mxCell id="mJUfbH7Lrrvv5M62oKp3-60" value="" style="rounded=0;whiteSpace=wrap;html=1;fillColor=#94AFC5;" vertex="1" parent="1">
          <mxGeometry x="221.96261682242994" y="585.9090909090909" width="111.58878504672899" height="34.54545454545455" as="geometry" />
        </mxCell>
        <mxCell id="mJUfbH7Lrrvv5M62oKp3-61" value="Jan&lt;span style=&quot;color: rgba(0 , 0 , 0 , 0) ; font-family: monospace ; font-size: 0px&quot;&gt;%3CmxGraphModel%3E%3Croot%3E%3CmxCell%20id%3D%220%22%2F%3E%3CmxCell%20id%3D%221%22%20parent%3D%220%22%2F%3E%3CmxCell%20id%3D%222%22%20value%3D%22%22%20style%3D%22rounded%3D0%3BwhiteSpace%3Dwrap%3Bhtml%3D1%3B%22%20vertex%3D%221%22%20parent%3D%221%22%3E%3CmxGeometry%20x%3D%22340%22%20y%3D%22360%22%20width%3D%22120%22%20height%3D%2240%22%20as%3D%22geometry%22%2F%3E%3C%2FmxCell%3E%3C%2Froot%3E%3C%2FmxGraphModel%3E&lt;/span&gt;" style="rounded=0;whiteSpace=wrap;html=1;fillColor=#A3ADB5;" vertex="1" parent="1">
          <mxGeometry x="-126.75233644859813" y="603.1818181818181" width="27.897196261682247" height="17.272727272727273" as="geometry" />
        </mxCell>
        <mxCell id="mJUfbH7Lrrvv5M62oKp3-62" value="Feb" style="rounded=0;whiteSpace=wrap;html=1;fillColor=#A3ADB5;" vertex="1" parent="1">
          <mxGeometry x="-98.85514018691589" y="603.1818181818181" width="27.897196261682247" height="17.272727272727273" as="geometry" />
        </mxCell>
        <mxCell id="mJUfbH7Lrrvv5M62oKp3-63" value="Mar" style="rounded=0;whiteSpace=wrap;html=1;fillColor=#A3ADB5;" vertex="1" parent="1">
          <mxGeometry x="-70.95794392523364" y="603.1818181818181" width="27.897196261682247" height="17.272727272727273" as="geometry" />
        </mxCell>
        <mxCell id="mJUfbH7Lrrvv5M62oKp3-64" value="Apr" style="rounded=0;whiteSpace=wrap;html=1;fillColor=#A3ADB5;" vertex="1" parent="1">
          <mxGeometry x="-5.864485981308405" y="603.1818181818181" width="27.897196261682247" height="17.272727272727273" as="geometry" />
        </mxCell>
        <mxCell id="mJUfbH7Lrrvv5M62oKp3-65" value="May" style="rounded=0;whiteSpace=wrap;html=1;fillColor=#A3ADB5;" vertex="1" parent="1">
          <mxGeometry x="22.032710280373863" y="603.1818181818181" width="27.897196261682247" height="17.272727272727273" as="geometry" />
        </mxCell>
        <mxCell id="mJUfbH7Lrrvv5M62oKp3-66" value="Jun" style="rounded=0;whiteSpace=wrap;html=1;fillColor=#A3ADB5;" vertex="1" parent="1">
          <mxGeometry x="49.929906542056074" y="603.1818181818181" width="27.897196261682247" height="17.272727272727273" as="geometry" />
        </mxCell>
        <mxCell id="mJUfbH7Lrrvv5M62oKp3-67" value="Jul" style="rounded=0;whiteSpace=wrap;html=1;fillColor=#A3ADB5;" vertex="1" parent="1">
          <mxGeometry x="115.02336448598135" y="603.1818181818181" width="27.897196261682247" height="17.272727272727273" as="geometry" />
        </mxCell>
        <mxCell id="mJUfbH7Lrrvv5M62oKp3-68" value="Aug" style="rounded=0;whiteSpace=wrap;html=1;fillColor=#A3ADB5;" vertex="1" parent="1">
          <mxGeometry x="142.92056074766356" y="603.1818181818181" width="27.897196261682247" height="17.272727272727273" as="geometry" />
        </mxCell>
        <mxCell id="mJUfbH7Lrrvv5M62oKp3-69" value="Sep" style="rounded=0;whiteSpace=wrap;html=1;fillColor=#A3ADB5;" vertex="1" parent="1">
          <mxGeometry x="170.81775700934583" y="603.1818181818181" width="27.897196261682247" height="17.272727272727273" as="geometry" />
        </mxCell>
        <mxCell id="mJUfbH7Lrrvv5M62oKp3-70" value="Oct" style="rounded=0;whiteSpace=wrap;html=1;fillColor=#A3ADB5;" vertex="1" parent="1">
          <mxGeometry x="235.91121495327104" y="603.1818181818181" width="27.897196261682247" height="17.272727272727273" as="geometry" />
        </mxCell>
        <mxCell id="mJUfbH7Lrrvv5M62oKp3-71" value="Nov" style="rounded=0;whiteSpace=wrap;html=1;fillColor=#A3ADB5;" vertex="1" parent="1">
          <mxGeometry x="263.8084112149533" y="603.1818181818181" width="27.897196261682247" height="17.272727272727273" as="geometry" />
        </mxCell>
        <mxCell id="mJUfbH7Lrrvv5M62oKp3-72" value="Dec" style="rounded=0;whiteSpace=wrap;html=1;fillColor=#A3ADB5;" vertex="1" parent="1">
          <mxGeometry x="291.7056074766356" y="603.1818181818181" width="27.897196261682247" height="17.272727272727273" as="geometry" />
        </mxCell>
        <mxCell id="mJUfbH7Lrrvv5M62oKp3-73" value="Release 2019.1" style="text;html=1;strokeColor=none;fillColor=none;align=center;verticalAlign=middle;whiteSpace=wrap;rounded=0;" vertex="1" parent="1">
          <mxGeometry x="-131.4018691588785" y="585.9090909090909" width="92.99065420560748" height="17.272727272727273" as="geometry" />
        </mxCell>
        <mxCell id="mJUfbH7Lrrvv5M62oKp3-74" value="Release 2019.2" style="text;html=1;strokeColor=none;fillColor=none;align=center;verticalAlign=middle;whiteSpace=wrap;rounded=0;" vertex="1" parent="1">
          <mxGeometry x="-10.514018691588774" y="585.9090909090909" width="92.99065420560748" height="17.272727272727273" as="geometry" />
        </mxCell>
        <mxCell id="mJUfbH7Lrrvv5M62oKp3-75" value="Release 2019.3" style="text;html=1;strokeColor=none;fillColor=none;align=center;verticalAlign=middle;whiteSpace=wrap;rounded=0;" vertex="1" parent="1">
          <mxGeometry x="110.37383177570098" y="585.9090909090909" width="92.99065420560748" height="17.272727272727273" as="geometry" />
        </mxCell>
        <mxCell id="mJUfbH7Lrrvv5M62oKp3-76" value="Release 2019.4" style="text;html=1;strokeColor=none;fillColor=none;align=center;verticalAlign=middle;whiteSpace=wrap;rounded=0;" vertex="1" parent="1">
          <mxGeometry x="231.26168224299073" y="585.9090909090909" width="92.99065420560748" height="17.272727272727273" as="geometry" />
        </mxCell>
        <mxCell id="mJUfbH7Lrrvv5M62oKp3-77" value="" style="endArrow=classic;html=1;" edge="1" parent="1">
          <mxGeometry x="-150" y="560" as="geometry">
            <mxPoint x="-150" y="560" as="sourcePoint" />
            <mxPoint x="91.77570093457945" y="560" as="targetPoint" />
            <Array as="points">
              <mxPoint x="-29.112149532710276" y="560" />
            </Array>
          </mxGeometry>
        </mxCell>
        <mxCell id="mJUfbH7Lrrvv5M62oKp3-78" value="K8S 1.12" style="edgeLabel;resizable=0;html=1;align=center;verticalAlign=middle;" connectable="0" vertex="1" parent="mJUfbH7Lrrvv5M62oKp3-77">
          <mxGeometry relative="1" as="geometry" />
        </mxCell>
        <mxCell id="mJUfbH7Lrrvv5M62oKp3-79" value="" style="endArrow=classic;html=1;" edge="1" parent="1">
          <mxGeometry x="-150" y="560" as="geometry">
            <mxPoint x="101.07476635514024" y="560" as="sourcePoint" />
            <mxPoint x="342.8504672897197" y="560" as="targetPoint" />
          </mxGeometry>
        </mxCell>
        <mxCell id="mJUfbH7Lrrvv5M62oKp3-80" value="K8S 1.14" style="edgeLabel;resizable=0;html=1;align=center;verticalAlign=middle;" connectable="0" vertex="1" parent="mJUfbH7Lrrvv5M62oKp3-79">
          <mxGeometry relative="1" as="geometry" />
        </mxCell>
        <mxCell id="mJUfbH7Lrrvv5M62oKp3-81" value="" style="shape=curlyBracket;whiteSpace=wrap;html=1;rounded=1;rotation=-90;" vertex="1" parent="1">
          <mxGeometry x="85.38999999999999" y="401.73" width="18.6" height="489.26" as="geometry" />
        </mxCell>
        <mxCell id="mJUfbH7Lrrvv5M62oKp3-82" value="" style="rounded=0;whiteSpace=wrap;html=1;fillColor=#899757;strokeColor=none;" vertex="1" parent="1">
          <mxGeometry x="352.1495327102805" y="577.2727272727273" width="492.8504672897197" height="51.81818181818182" as="geometry" />
        </mxCell>
        <mxCell id="mJUfbH7Lrrvv5M62oKp3-83" value="" style="rounded=0;whiteSpace=wrap;html=1;align=left;horizontal=0;fillColor=#94AFC5;" vertex="1" parent="1">
          <mxGeometry x="361.44859813084116" y="585.9090909090909" width="111.58878504672899" height="34.54545454545455" as="geometry" />
        </mxCell>
        <mxCell id="mJUfbH7Lrrvv5M62oKp3-84" value="" style="rounded=0;whiteSpace=wrap;html=1;fillColor=#94AFC5;" vertex="1" parent="1">
          <mxGeometry x="482.3364485981309" y="585.9090909090909" width="111.58878504672899" height="34.54545454545455" as="geometry" />
        </mxCell>
        <mxCell id="mJUfbH7Lrrvv5M62oKp3-85" value="" style="rounded=0;whiteSpace=wrap;html=1;fillColor=#94AFC5;" vertex="1" parent="1">
          <mxGeometry x="603.2242990654206" y="585.9090909090909" width="111.58878504672899" height="34.54545454545455" as="geometry" />
        </mxCell>
        <mxCell id="mJUfbH7Lrrvv5M62oKp3-86" value="" style="rounded=0;whiteSpace=wrap;html=1;fillColor=#94AFC5;" vertex="1" parent="1">
          <mxGeometry x="724.1121495327103" y="585.9090909090909" width="111.58878504672899" height="34.54545454545455" as="geometry" />
        </mxCell>
        <mxCell id="mJUfbH7Lrrvv5M62oKp3-87" value="Jan&lt;span style=&quot;color: rgba(0 , 0 , 0 , 0) ; font-family: monospace ; font-size: 0px&quot;&gt;%3CmxGraphModel%3E%3Croot%3E%3CmxCell%20id%3D%220%22%2F%3E%3CmxCell%20id%3D%221%22%20parent%3D%220%22%2F%3E%3CmxCell%20id%3D%222%22%20value%3D%22%22%20style%3D%22rounded%3D0%3BwhiteSpace%3Dwrap%3Bhtml%3D1%3B%22%20vertex%3D%221%22%20parent%3D%221%22%3E%3CmxGeometry%20x%3D%22340%22%20y%3D%22360%22%20width%3D%22120%22%20height%3D%2240%22%20as%3D%22geometry%22%2F%3E%3C%2FmxCell%3E%3C%2Froot%3E%3C%2FmxGraphModel%3E&lt;/span&gt;" style="rounded=0;whiteSpace=wrap;html=1;fillColor=#A3ADB5;" vertex="1" parent="1">
          <mxGeometry x="375.3971962616822" y="603.1818181818181" width="27.897196261682247" height="17.272727272727273" as="geometry" />
        </mxCell>
        <mxCell id="mJUfbH7Lrrvv5M62oKp3-88" value="Feb" style="rounded=0;whiteSpace=wrap;html=1;fillColor=#A3ADB5;" vertex="1" parent="1">
          <mxGeometry x="403.29439252336465" y="603.1818181818181" width="27.897196261682247" height="17.272727272727273" as="geometry" />
        </mxCell>
        <mxCell id="mJUfbH7Lrrvv5M62oKp3-89" value="Mar" style="rounded=0;whiteSpace=wrap;html=1;fillColor=#A3ADB5;" vertex="1" parent="1">
          <mxGeometry x="431.19158878504686" y="603.1818181818181" width="27.897196261682247" height="17.272727272727273" as="geometry" />
        </mxCell>
        <mxCell id="mJUfbH7Lrrvv5M62oKp3-90" value="Apr" style="rounded=0;whiteSpace=wrap;html=1;fillColor=#A3ADB5;" vertex="1" parent="1">
          <mxGeometry x="496.285046728972" y="603.1818181818181" width="27.897196261682247" height="17.272727272727273" as="geometry" />
        </mxCell>
        <mxCell id="mJUfbH7Lrrvv5M62oKp3-91" value="May" style="rounded=0;whiteSpace=wrap;html=1;fillColor=#A3ADB5;" vertex="1" parent="1">
          <mxGeometry x="524.1822429906543" y="603.1818181818181" width="27.897196261682247" height="17.272727272727273" as="geometry" />
        </mxCell>
        <mxCell id="mJUfbH7Lrrvv5M62oKp3-92" value="Jun" style="rounded=0;whiteSpace=wrap;html=1;fillColor=#A3ADB5;" vertex="1" parent="1">
          <mxGeometry x="552.0794392523366" y="603.1818181818181" width="27.897196261682247" height="17.272727272727273" as="geometry" />
        </mxCell>
        <mxCell id="mJUfbH7Lrrvv5M62oKp3-93" value="Jul" style="rounded=0;whiteSpace=wrap;html=1;fillColor=#A3ADB5;" vertex="1" parent="1">
          <mxGeometry x="617.1728971962617" y="603.1818181818181" width="27.897196261682247" height="17.272727272727273" as="geometry" />
        </mxCell>
        <mxCell id="mJUfbH7Lrrvv5M62oKp3-94" value="Aug" style="rounded=0;whiteSpace=wrap;html=1;fillColor=#A3ADB5;" vertex="1" parent="1">
          <mxGeometry x="645.070093457944" y="603.1818181818181" width="27.897196261682247" height="17.272727272727273" as="geometry" />
        </mxCell>
        <mxCell id="mJUfbH7Lrrvv5M62oKp3-95" value="Sep" style="rounded=0;whiteSpace=wrap;html=1;fillColor=#A3ADB5;" vertex="1" parent="1">
          <mxGeometry x="672.9672897196263" y="603.1818181818181" width="27.897196261682247" height="17.272727272727273" as="geometry" />
        </mxCell>
        <mxCell id="mJUfbH7Lrrvv5M62oKp3-96" value="Oct" style="rounded=0;whiteSpace=wrap;html=1;fillColor=#A3ADB5;" vertex="1" parent="1">
          <mxGeometry x="738.0607476635514" y="603.1818181818181" width="27.897196261682247" height="17.272727272727273" as="geometry" />
        </mxCell>
        <mxCell id="mJUfbH7Lrrvv5M62oKp3-97" value="Nov" style="rounded=0;whiteSpace=wrap;html=1;fillColor=#A3ADB5;" vertex="1" parent="1">
          <mxGeometry x="765.9579439252337" y="603.1818181818181" width="27.897196261682247" height="17.272727272727273" as="geometry" />
        </mxCell>
        <mxCell id="mJUfbH7Lrrvv5M62oKp3-98" value="Dec" style="rounded=0;whiteSpace=wrap;html=1;fillColor=#A3ADB5;" vertex="1" parent="1">
          <mxGeometry x="793.8551401869161" y="603.1818181818181" width="27.897196261682247" height="17.272727272727273" as="geometry" />
        </mxCell>
        <mxCell id="mJUfbH7Lrrvv5M62oKp3-99" value="Release 2020.1" style="text;html=1;strokeColor=none;fillColor=none;align=center;verticalAlign=middle;whiteSpace=wrap;rounded=0;" vertex="1" parent="1">
          <mxGeometry x="370.74766355140196" y="585.9090909090909" width="92.99065420560748" height="17.272727272727273" as="geometry" />
        </mxCell>
        <mxCell id="mJUfbH7Lrrvv5M62oKp3-100" value="Release 2020.2" style="text;html=1;strokeColor=none;fillColor=none;align=center;verticalAlign=middle;whiteSpace=wrap;rounded=0;" vertex="1" parent="1">
          <mxGeometry x="491.63551401869165" y="585.9090909090909" width="92.99065420560748" height="17.272727272727273" as="geometry" />
        </mxCell>
        <mxCell id="mJUfbH7Lrrvv5M62oKp3-101" value="Release 2020.3" style="text;html=1;strokeColor=none;fillColor=none;align=center;verticalAlign=middle;whiteSpace=wrap;rounded=0;" vertex="1" parent="1">
          <mxGeometry x="612.5233644859815" y="585.9090909090909" width="92.99065420560748" height="17.272727272727273" as="geometry" />
        </mxCell>
        <mxCell id="mJUfbH7Lrrvv5M62oKp3-102" value="Release 2020.4" style="text;html=1;strokeColor=none;fillColor=none;align=center;verticalAlign=middle;whiteSpace=wrap;rounded=0;" vertex="1" parent="1">
          <mxGeometry x="733.4112149532712" y="585.9090909090909" width="92.99065420560748" height="17.272727272727273" as="geometry" />
        </mxCell>
        <mxCell id="mJUfbH7Lrrvv5M62oKp3-103" value="" style="endArrow=classic;html=1;" edge="1" parent="1">
          <mxGeometry x="-150" y="560" as="geometry">
            <mxPoint x="352.1495327102805" y="560" as="sourcePoint" />
            <mxPoint x="593.9252336448599" y="560" as="targetPoint" />
            <Array as="points">
              <mxPoint x="473.0373831775702" y="560" />
            </Array>
          </mxGeometry>
        </mxCell>
        <mxCell id="mJUfbH7Lrrvv5M62oKp3-104" value="K8S 1.16" style="edgeLabel;resizable=0;html=1;align=center;verticalAlign=middle;" connectable="0" vertex="1" parent="mJUfbH7Lrrvv5M62oKp3-103">
          <mxGeometry relative="1" as="geometry" />
        </mxCell>
        <mxCell id="mJUfbH7Lrrvv5M62oKp3-105" value="" style="endArrow=classic;html=1;" edge="1" parent="1">
          <mxGeometry x="-150" y="560" as="geometry">
            <mxPoint x="603.2242990654206" y="560" as="sourcePoint" />
            <mxPoint x="845" y="560" as="targetPoint" />
          </mxGeometry>
        </mxCell>
        <mxCell id="mJUfbH7Lrrvv5M62oKp3-106" value="K8S 1.18" style="edgeLabel;resizable=0;html=1;align=center;verticalAlign=middle;" connectable="0" vertex="1" parent="mJUfbH7Lrrvv5M62oKp3-105">
          <mxGeometry relative="1" as="geometry" />
        </mxCell>
        <mxCell id="mJUfbH7Lrrvv5M62oKp3-107" value="" style="shape=curlyBracket;whiteSpace=wrap;html=1;rounded=1;rotation=-90;" vertex="1" parent="1">
          <mxGeometry x="588.54" y="400.74" width="18.6" height="491.25" as="geometry" />
        </mxCell>
        <mxCell id="mJUfbH7Lrrvv5M62oKp3-110" value="Year 2" style="text;html=1;strokeColor=none;fillColor=none;align=center;verticalAlign=middle;whiteSpace=wrap;rounded=0;" vertex="1" parent="1">
          <mxGeometry x="577.8399999999999" y="650" width="40" height="20" as="geometry" />
        </mxCell>
        <mxCell id="mJUfbH7Lrrvv5M62oKp3-109" value="Year 1" style="text;html=1;strokeColor=none;fillColor=none;align=center;verticalAlign=middle;whiteSpace=wrap;rounded=0;" vertex="1" parent="1">
          <mxGeometry x="75.01999999999998" y="650" width="40" height="20" as="geometry" />
        </mxCell>
        <mxCell id="mJUfbH7Lrrvv5M62oKp3-112" value="" style="rounded=0;whiteSpace=wrap;html=1;align=left;horizontal=0;fillColor=#94AFC5;" vertex="1" parent="1">
          <mxGeometry x="92.16859813084113" y="845.1690909090909" width="111.58878504672899" height="34.54545454545455" as="geometry" />
        </mxCell>
        <mxCell id="mJUfbH7Lrrvv5M62oKp3-113" value="" style="rounded=0;whiteSpace=wrap;html=1;fillColor=#94AFC5;" vertex="1" parent="1">
          <mxGeometry x="213.05644859813094" y="845.1690909090909" width="111.58878504672899" height="34.54545454545455" as="geometry" />
        </mxCell>
        <mxCell id="mJUfbH7Lrrvv5M62oKp3-114" value="" style="rounded=0;whiteSpace=wrap;html=1;fillColor=#94AFC5;" vertex="1" parent="1">
          <mxGeometry x="333.94429906542064" y="845.1690909090909" width="111.58878504672899" height="34.54545454545455" as="geometry" />
        </mxCell>
        <mxCell id="mJUfbH7Lrrvv5M62oKp3-115" value="" style="rounded=0;whiteSpace=wrap;html=1;fillColor=#94AFC5;" vertex="1" parent="1">
          <mxGeometry x="454.83214953271033" y="845.1690909090909" width="111.58878504672899" height="34.54545454545455" as="geometry" />
        </mxCell>
        <mxCell id="mJUfbH7Lrrvv5M62oKp3-116" value="Jan&lt;span style=&quot;color: rgba(0 , 0 , 0 , 0) ; font-family: monospace ; font-size: 0px&quot;&gt;%3CmxGraphModel%3E%3Croot%3E%3CmxCell%20id%3D%220%22%2F%3E%3CmxCell%20id%3D%221%22%20parent%3D%220%22%2F%3E%3CmxCell%20id%3D%222%22%20value%3D%22%22%20style%3D%22rounded%3D0%3BwhiteSpace%3Dwrap%3Bhtml%3D1%3B%22%20vertex%3D%221%22%20parent%3D%221%22%3E%3CmxGeometry%20x%3D%22340%22%20y%3D%22360%22%20width%3D%22120%22%20height%3D%2240%22%20as%3D%22geometry%22%2F%3E%3C%2FmxCell%3E%3C%2Froot%3E%3C%2FmxGraphModel%3E&lt;/span&gt;" style="rounded=0;whiteSpace=wrap;html=1;fillColor=#A3ADB5;" vertex="1" parent="1">
          <mxGeometry x="106.11719626168224" y="862.4418181818181" width="27.897196261682247" height="17.272727272727273" as="geometry" />
        </mxCell>
        <mxCell id="mJUfbH7Lrrvv5M62oKp3-117" value="Feb" style="rounded=0;whiteSpace=wrap;html=1;fillColor=#A3ADB5;" vertex="1" parent="1">
          <mxGeometry x="134.01439252336468" y="862.4418181818181" width="27.897196261682247" height="17.272727272727273" as="geometry" />
        </mxCell>
        <mxCell id="mJUfbH7Lrrvv5M62oKp3-118" value="Mar" style="rounded=0;whiteSpace=wrap;html=1;fillColor=#A3ADB5;" vertex="1" parent="1">
          <mxGeometry x="161.9115887850469" y="862.4418181818181" width="27.897196261682247" height="17.272727272727273" as="geometry" />
        </mxCell>
        <mxCell id="mJUfbH7Lrrvv5M62oKp3-119" value="Apr" style="rounded=0;whiteSpace=wrap;html=1;fillColor=#A3ADB5;" vertex="1" parent="1">
          <mxGeometry x="227.00504672897205" y="862.4418181818181" width="27.897196261682247" height="17.272727272727273" as="geometry" />
        </mxCell>
        <mxCell id="mJUfbH7Lrrvv5M62oKp3-120" value="May" style="rounded=0;whiteSpace=wrap;html=1;fillColor=#A3ADB5;" vertex="1" parent="1">
          <mxGeometry x="254.90224299065437" y="862.4418181818181" width="27.897196261682247" height="17.272727272727273" as="geometry" />
        </mxCell>
        <mxCell id="mJUfbH7Lrrvv5M62oKp3-121" value="Jun" style="rounded=0;whiteSpace=wrap;html=1;fillColor=#A3ADB5;" vertex="1" parent="1">
          <mxGeometry x="282.7994392523366" y="862.4418181818181" width="27.897196261682247" height="17.272727272727273" as="geometry" />
        </mxCell>
        <mxCell id="mJUfbH7Lrrvv5M62oKp3-122" value="Jul" style="rounded=0;whiteSpace=wrap;html=1;fillColor=#A3ADB5;" vertex="1" parent="1">
          <mxGeometry x="347.89289719626174" y="862.4418181818181" width="27.897196261682247" height="17.272727272727273" as="geometry" />
        </mxCell>
        <mxCell id="mJUfbH7Lrrvv5M62oKp3-123" value="Aug" style="rounded=0;whiteSpace=wrap;html=1;fillColor=#A3ADB5;" vertex="1" parent="1">
          <mxGeometry x="375.79009345794407" y="862.4418181818181" width="27.897196261682247" height="17.272727272727273" as="geometry" />
        </mxCell>
        <mxCell id="mJUfbH7Lrrvv5M62oKp3-124" value="Sep" style="rounded=0;whiteSpace=wrap;html=1;fillColor=#A3ADB5;" vertex="1" parent="1">
          <mxGeometry x="403.6872897196263" y="862.4418181818181" width="27.897196261682247" height="17.272727272727273" as="geometry" />
        </mxCell>
        <mxCell id="mJUfbH7Lrrvv5M62oKp3-125" value="Oct" style="rounded=0;whiteSpace=wrap;html=1;fillColor=#A3ADB5;" vertex="1" parent="1">
          <mxGeometry x="468.78074766355144" y="862.4418181818181" width="27.897196261682247" height="17.272727272727273" as="geometry" />
        </mxCell>
        <mxCell id="mJUfbH7Lrrvv5M62oKp3-126" value="Nov" style="rounded=0;whiteSpace=wrap;html=1;fillColor=#A3ADB5;" vertex="1" parent="1">
          <mxGeometry x="496.67794392523376" y="862.4418181818181" width="27.897196261682247" height="17.272727272727273" as="geometry" />
        </mxCell>
        <mxCell id="mJUfbH7Lrrvv5M62oKp3-127" value="Dec" style="rounded=0;whiteSpace=wrap;html=1;fillColor=#A3ADB5;" vertex="1" parent="1">
          <mxGeometry x="524.5751401869161" y="862.4418181818181" width="27.897196261682247" height="17.272727272727273" as="geometry" />
        </mxCell>
        <mxCell id="mJUfbH7Lrrvv5M62oKp3-128" value="Release 2020.1" style="text;html=1;strokeColor=none;fillColor=none;align=center;verticalAlign=middle;whiteSpace=wrap;rounded=0;" vertex="1" parent="1">
          <mxGeometry x="101.46766355140198" y="845.1690909090909" width="92.99065420560748" height="17.272727272727273" as="geometry" />
        </mxCell>
        <mxCell id="mJUfbH7Lrrvv5M62oKp3-129" value="Release 2020.2" style="text;html=1;strokeColor=none;fillColor=none;align=center;verticalAlign=middle;whiteSpace=wrap;rounded=0;" vertex="1" parent="1">
          <mxGeometry x="222.35551401869168" y="845.1690909090909" width="92.99065420560748" height="17.272727272727273" as="geometry" />
        </mxCell>
        <mxCell id="mJUfbH7Lrrvv5M62oKp3-130" value="Release 2020.3" style="text;html=1;strokeColor=none;fillColor=none;align=center;verticalAlign=middle;whiteSpace=wrap;rounded=0;" vertex="1" parent="1">
          <mxGeometry x="343.2433644859815" y="845.1690909090909" width="92.99065420560748" height="17.272727272727273" as="geometry" />
        </mxCell>
        <mxCell id="mJUfbH7Lrrvv5M62oKp3-131" value="Release 2020.4" style="text;html=1;strokeColor=none;fillColor=none;align=center;verticalAlign=middle;whiteSpace=wrap;rounded=0;" vertex="1" parent="1">
          <mxGeometry x="464.1312149532712" y="845.1690909090909" width="92.99065420560748" height="17.272727272727273" as="geometry" />
        </mxCell>
        <mxCell id="mJUfbH7Lrrvv5M62oKp3-132" value="" style="endArrow=classic;html=1;" edge="1" parent="1">
          <mxGeometry x="-150" y="560" as="geometry">
            <mxPoint x="82.86953271028028" y="819.26" as="sourcePoint" />
            <mxPoint x="324.6452336448599" y="819.26" as="targetPoint" />
            <Array as="points">
              <mxPoint x="203.7573831775702" y="819.26" />
            </Array>
          </mxGeometry>
        </mxCell>
        <mxCell id="mJUfbH7Lrrvv5M62oKp3-133" value="K8S 1.16" style="edgeLabel;resizable=0;html=1;align=center;verticalAlign=middle;" connectable="0" vertex="1" parent="mJUfbH7Lrrvv5M62oKp3-132">
          <mxGeometry relative="1" as="geometry" />
        </mxCell>
        <mxCell id="mJUfbH7Lrrvv5M62oKp3-134" value="" style="endArrow=classic;html=1;" edge="1" parent="1">
          <mxGeometry x="-150" y="560" as="geometry">
            <mxPoint x="333.9442990654204" y="819.26" as="sourcePoint" />
            <mxPoint x="575.72" y="819.26" as="targetPoint" />
          </mxGeometry>
        </mxCell>
        <mxCell id="mJUfbH7Lrrvv5M62oKp3-135" value="K8S 1.18" style="edgeLabel;resizable=0;html=1;align=center;verticalAlign=middle;" connectable="0" vertex="1" parent="mJUfbH7Lrrvv5M62oKp3-134">
          <mxGeometry relative="1" as="geometry" />
        </mxCell>
        <mxCell id="mJUfbH7Lrrvv5M62oKp3-136" value="" style="shape=curlyBracket;whiteSpace=wrap;html=1;rounded=1;rotation=-90;" vertex="1" parent="1">
          <mxGeometry x="319.26" y="660" width="18.6" height="491.25" as="geometry" />
        </mxCell>
        <mxCell id="mJUfbH7Lrrvv5M62oKp3-137" value="Year 2" style="text;html=1;strokeColor=none;fillColor=none;align=center;verticalAlign=middle;whiteSpace=wrap;rounded=0;" vertex="1" parent="1">
          <mxGeometry x="308.55999999999995" y="909.26" width="40" height="20" as="geometry" />
        </mxCell>
        <mxCell id="mJUfbH7Lrrvv5M62oKp3-165" value="" style="rounded=0;whiteSpace=wrap;html=1;gradientDirection=east;fillColor=#DD804E;gradientColor=#F5B33C;strokeColor=none;" vertex="1" parent="1">
          <mxGeometry x="-177.5" y="836.53" width="247.85" height="51.82" as="geometry" />
        </mxCell>
        <mxCell id="mJUfbH7Lrrvv5M62oKp3-168" value="" style="rounded=0;whiteSpace=wrap;html=1;fillColor=#94AFC5;" vertex="1" parent="1">
          <mxGeometry x="-171.42570093457937" y="845.1690909090909" width="111.58878504672899" height="34.54545454545455" as="geometry" />
        </mxCell>
        <mxCell id="mJUfbH7Lrrvv5M62oKp3-169" value="" style="rounded=0;whiteSpace=wrap;html=1;fillColor=#94AFC5;" vertex="1" parent="1">
          <mxGeometry x="-50.53785046728967" y="845.1690909090909" width="111.58878504672899" height="34.54545454545455" as="geometry" />
        </mxCell>
        <mxCell id="mJUfbH7Lrrvv5M62oKp3-176" value="Jul" style="rounded=0;whiteSpace=wrap;html=1;fillColor=#A3ADB5;" vertex="1" parent="1">
          <mxGeometry x="-157.47710280373826" y="862.4418181818181" width="27.897196261682247" height="17.272727272727273" as="geometry" />
        </mxCell>
        <mxCell id="mJUfbH7Lrrvv5M62oKp3-177" value="Aug" style="rounded=0;whiteSpace=wrap;html=1;fillColor=#A3ADB5;" vertex="1" parent="1">
          <mxGeometry x="-129.57990654205594" y="862.4418181818181" width="27.897196261682247" height="17.272727272727273" as="geometry" />
        </mxCell>
        <mxCell id="mJUfbH7Lrrvv5M62oKp3-178" value="Sep" style="rounded=0;whiteSpace=wrap;html=1;fillColor=#A3ADB5;" vertex="1" parent="1">
          <mxGeometry x="-101.68271028037373" y="862.4418181818181" width="27.897196261682247" height="17.272727272727273" as="geometry" />
        </mxCell>
        <mxCell id="mJUfbH7Lrrvv5M62oKp3-179" value="Oct" style="rounded=0;whiteSpace=wrap;html=1;fillColor=#A3ADB5;" vertex="1" parent="1">
          <mxGeometry x="-36.58925233644857" y="862.4418181818181" width="27.897196261682247" height="17.272727272727273" as="geometry" />
        </mxCell>
        <mxCell id="mJUfbH7Lrrvv5M62oKp3-180" value="Nov" style="rounded=0;whiteSpace=wrap;html=1;fillColor=#A3ADB5;" vertex="1" parent="1">
          <mxGeometry x="-8.692056074766242" y="862.4418181818181" width="27.897196261682247" height="17.272727272727273" as="geometry" />
        </mxCell>
        <mxCell id="mJUfbH7Lrrvv5M62oKp3-181" value="Dec" style="rounded=0;whiteSpace=wrap;html=1;fillColor=#A3ADB5;" vertex="1" parent="1">
          <mxGeometry x="19.205140186916083" y="862.4418181818181" width="27.897196261682247" height="17.272727272727273" as="geometry" />
        </mxCell>
        <mxCell id="mJUfbH7Lrrvv5M62oKp3-184" value="Release 2020.3" style="text;html=1;strokeColor=none;fillColor=none;align=center;verticalAlign=middle;whiteSpace=wrap;rounded=0;" vertex="1" parent="1">
          <mxGeometry x="-162.12663551401852" y="845.1690909090909" width="92.99065420560748" height="17.272727272727273" as="geometry" />
        </mxCell>
        <mxCell id="mJUfbH7Lrrvv5M62oKp3-185" value="Release 2020.4" style="text;html=1;strokeColor=none;fillColor=none;align=center;verticalAlign=middle;whiteSpace=wrap;rounded=0;" vertex="1" parent="1">
          <mxGeometry x="-41.23878504672882" y="845.1690909090909" width="92.99065420560748" height="17.272727272727273" as="geometry" />
        </mxCell>
        <mxCell id="mJUfbH7Lrrvv5M62oKp3-188" value="" style="endArrow=classic;html=1;" edge="1" parent="1">
          <mxGeometry x="-150" y="560" as="geometry">
            <mxPoint x="-171.42570093457937" y="819.26" as="sourcePoint" />
            <mxPoint x="70.35000000000025" y="819.26" as="targetPoint" />
          </mxGeometry>
        </mxCell>
        <mxCell id="mJUfbH7Lrrvv5M62oKp3-189" value="K8S 1.14" style="edgeLabel;resizable=0;html=1;align=center;verticalAlign=middle;" connectable="0" vertex="1" parent="mJUfbH7Lrrvv5M62oKp3-188">
          <mxGeometry relative="1" as="geometry" />
        </mxCell>
        <mxCell id="mJUfbH7Lrrvv5M62oKp3-190" value="" style="shape=curlyBracket;whiteSpace=wrap;html=1;rounded=1;rotation=-90;" vertex="1" parent="1">
          <mxGeometry x="-61.11" y="785" width="18.6" height="241.25" as="geometry" />
        </mxCell>
        <mxCell id="mJUfbH7Lrrvv5M62oKp3-191" value="Year 1" style="text;html=1;strokeColor=none;fillColor=none;align=center;verticalAlign=middle;whiteSpace=wrap;rounded=0;" vertex="1" parent="1">
          <mxGeometry x="-71.81000000000006" y="909.26" width="40" height="20" as="geometry" />
        </mxCell>
        <mxCell id="mJUfbH7Lrrvv5M62oKp3-164" value="Year 3" style="text;html=1;strokeColor=none;fillColor=none;align=center;verticalAlign=middle;whiteSpace=wrap;rounded=0;" vertex="1" parent="1">
          <mxGeometry x="722.5" y="909.26" width="40" height="20" as="geometry" />
        </mxCell>
        <mxCell id="mJUfbH7Lrrvv5M62oKp3-196" value="" style="rounded=0;whiteSpace=wrap;html=1;strokeColor=none;fillColor=#DD804E;" vertex="1" parent="1">
          <mxGeometry x="64.28999999999999" y="1005" width="530" height="60" as="geometry" />
        </mxCell>
        <mxCell id="mJUfbH7Lrrvv5M62oKp3-197" value="" style="rounded=0;whiteSpace=wrap;html=1;align=left;horizontal=0;fillColor=#94AFC5;" vertex="1" parent="1">
          <mxGeometry x="74.28999999999999" y="1015" width="120" height="40" as="geometry" />
        </mxCell>
        <mxCell id="mJUfbH7Lrrvv5M62oKp3-198" value="" style="rounded=0;whiteSpace=wrap;html=1;fillColor=#94AFC5;" vertex="1" parent="1">
          <mxGeometry x="204.29" y="1015" width="120" height="40" as="geometry" />
        </mxCell>
        <mxCell id="mJUfbH7Lrrvv5M62oKp3-199" value="" style="rounded=0;whiteSpace=wrap;html=1;fillColor=#94AFC5;" vertex="1" parent="1">
          <mxGeometry x="334.29" y="1015" width="120" height="40" as="geometry" />
        </mxCell>
        <mxCell id="mJUfbH7Lrrvv5M62oKp3-200" value="" style="rounded=0;whiteSpace=wrap;html=1;fillColor=#94AFC5;" vertex="1" parent="1">
          <mxGeometry x="464.29" y="1015" width="120" height="40" as="geometry" />
        </mxCell>
        <mxCell id="mJUfbH7Lrrvv5M62oKp3-201" value="Jan&lt;span style=&quot;color: rgba(0 , 0 , 0 , 0) ; font-family: monospace ; font-size: 0px&quot;&gt;%3CmxGraphModel%3E%3Croot%3E%3CmxCell%20id%3D%220%22%2F%3E%3CmxCell%20id%3D%221%22%20parent%3D%220%22%2F%3E%3CmxCell%20id%3D%222%22%20value%3D%22%22%20style%3D%22rounded%3D0%3BwhiteSpace%3Dwrap%3Bhtml%3D1%3B%22%20vertex%3D%221%22%20parent%3D%221%22%3E%3CmxGeometry%20x%3D%22340%22%20y%3D%22360%22%20width%3D%22120%22%20height%3D%2240%22%20as%3D%22geometry%22%2F%3E%3C%2FmxCell%3E%3C%2Froot%3E%3C%2FmxGraphModel%3E&lt;/span&gt;" style="rounded=0;whiteSpace=wrap;html=1;fillColor=#A3ADB5;" vertex="1" parent="1">
          <mxGeometry x="89.28999999999999" y="1035" width="30" height="20" as="geometry" />
        </mxCell>
        <mxCell id="mJUfbH7Lrrvv5M62oKp3-202" value="Feb" style="rounded=0;whiteSpace=wrap;html=1;fillColor=#A3ADB5;" vertex="1" parent="1">
          <mxGeometry x="119.28999999999999" y="1035" width="30" height="20" as="geometry" />
        </mxCell>
        <mxCell id="mJUfbH7Lrrvv5M62oKp3-203" value="Mar" style="rounded=0;whiteSpace=wrap;html=1;fillColor=#A3ADB5;" vertex="1" parent="1">
          <mxGeometry x="149.29" y="1035" width="30" height="20" as="geometry" />
        </mxCell>
        <mxCell id="mJUfbH7Lrrvv5M62oKp3-204" value="Apr" style="rounded=0;whiteSpace=wrap;html=1;fillColor=#A3ADB5;" vertex="1" parent="1">
          <mxGeometry x="219.29" y="1035" width="30" height="20" as="geometry" />
        </mxCell>
        <mxCell id="mJUfbH7Lrrvv5M62oKp3-205" value="May" style="rounded=0;whiteSpace=wrap;html=1;fillColor=#A3ADB5;" vertex="1" parent="1">
          <mxGeometry x="249.29" y="1035" width="30" height="20" as="geometry" />
        </mxCell>
        <mxCell id="mJUfbH7Lrrvv5M62oKp3-206" value="Jun" style="rounded=0;whiteSpace=wrap;html=1;fillColor=#A3ADB5;" vertex="1" parent="1">
          <mxGeometry x="279.29" y="1035" width="30" height="20" as="geometry" />
        </mxCell>
        <mxCell id="mJUfbH7Lrrvv5M62oKp3-207" value="Jul" style="rounded=0;whiteSpace=wrap;html=1;fillColor=#A3ADB5;" vertex="1" parent="1">
          <mxGeometry x="349.29" y="1035" width="30" height="20" as="geometry" />
        </mxCell>
        <mxCell id="mJUfbH7Lrrvv5M62oKp3-208" value="Aug" style="rounded=0;whiteSpace=wrap;html=1;fillColor=#A3ADB5;" vertex="1" parent="1">
          <mxGeometry x="379.29" y="1035" width="30" height="20" as="geometry" />
        </mxCell>
        <mxCell id="mJUfbH7Lrrvv5M62oKp3-209" value="Sep" style="rounded=0;whiteSpace=wrap;html=1;fillColor=#A3ADB5;" vertex="1" parent="1">
          <mxGeometry x="409.29" y="1035" width="30" height="20" as="geometry" />
        </mxCell>
        <mxCell id="mJUfbH7Lrrvv5M62oKp3-210" value="Oct" style="rounded=0;whiteSpace=wrap;html=1;fillColor=#A3ADB5;" vertex="1" parent="1">
          <mxGeometry x="479.29" y="1035" width="30" height="20" as="geometry" />
        </mxCell>
        <mxCell id="mJUfbH7Lrrvv5M62oKp3-211" value="Nov" style="rounded=0;whiteSpace=wrap;html=1;fillColor=#A3ADB5;" vertex="1" parent="1">
          <mxGeometry x="509.29" y="1035" width="30" height="20" as="geometry" />
        </mxCell>
        <mxCell id="mJUfbH7Lrrvv5M62oKp3-212" value="Dec" style="rounded=0;whiteSpace=wrap;html=1;fillColor=#A3ADB5;" vertex="1" parent="1">
          <mxGeometry x="539.29" y="1035" width="30" height="20" as="geometry" />
        </mxCell>
        <mxCell id="mJUfbH7Lrrvv5M62oKp3-213" value="Release 2021.1" style="text;html=1;strokeColor=none;fillColor=none;align=center;verticalAlign=middle;whiteSpace=wrap;rounded=0;" vertex="1" parent="1">
          <mxGeometry x="84.28999999999999" y="1015" width="100" height="20" as="geometry" />
        </mxCell>
        <mxCell id="mJUfbH7Lrrvv5M62oKp3-214" value="Release 2021.2" style="text;html=1;strokeColor=none;fillColor=none;align=center;verticalAlign=middle;whiteSpace=wrap;rounded=0;" vertex="1" parent="1">
          <mxGeometry x="214.29" y="1015" width="100" height="20" as="geometry" />
        </mxCell>
        <mxCell id="mJUfbH7Lrrvv5M62oKp3-215" value="Release 2021.3" style="text;html=1;strokeColor=none;fillColor=none;align=center;verticalAlign=middle;whiteSpace=wrap;rounded=0;" vertex="1" parent="1">
          <mxGeometry x="344.29" y="1015" width="100" height="20" as="geometry" />
        </mxCell>
        <mxCell id="mJUfbH7Lrrvv5M62oKp3-216" value="Release 2021.4" style="text;html=1;strokeColor=none;fillColor=none;align=center;verticalAlign=middle;whiteSpace=wrap;rounded=0;" vertex="1" parent="1">
          <mxGeometry x="474.29" y="1015" width="100" height="20" as="geometry" />
        </mxCell>
        <mxCell id="mJUfbH7Lrrvv5M62oKp3-217" value="" style="endArrow=classic;html=1;" edge="1" parent="1">
          <mxGeometry relative="1" as="geometry">
            <mxPoint x="64.28999999999999" y="985" as="sourcePoint" />
            <mxPoint x="324.29" y="985" as="targetPoint" />
            <Array as="points">
              <mxPoint x="194.29" y="985" />
            </Array>
          </mxGeometry>
        </mxCell>
        <mxCell id="mJUfbH7Lrrvv5M62oKp3-218" value="K8S 1.20" style="edgeLabel;resizable=0;html=1;align=center;verticalAlign=middle;" connectable="0" vertex="1" parent="mJUfbH7Lrrvv5M62oKp3-217">
          <mxGeometry relative="1" as="geometry" />
        </mxCell>
        <mxCell id="mJUfbH7Lrrvv5M62oKp3-219" value="" style="endArrow=classic;html=1;" edge="1" parent="1">
          <mxGeometry relative="1" as="geometry">
            <mxPoint x="334.29" y="985" as="sourcePoint" />
            <mxPoint x="594.29" y="985" as="targetPoint" />
          </mxGeometry>
        </mxCell>
        <mxCell id="mJUfbH7Lrrvv5M62oKp3-220" value="K8S 1.22" style="edgeLabel;resizable=0;html=1;align=center;verticalAlign=middle;" connectable="0" vertex="1" parent="mJUfbH7Lrrvv5M62oKp3-219">
          <mxGeometry relative="1" as="geometry" />
        </mxCell>
        <mxCell id="mJUfbH7Lrrvv5M62oKp3-221" value="" style="shape=curlyBracket;whiteSpace=wrap;html=1;rounded=1;rotation=-90;" vertex="1" parent="1">
          <mxGeometry x="319.29" y="820" width="20" height="530" as="geometry" />
        </mxCell>
      </root>
    </mxGraphModel>
  </diagram>
</mxfile>
